<?xml version="1.0" encoding="utf-8"?>
<!-- Generator: Adobe Illustrator 22.0.1, SVG Export Plug-In . SVG Version: 6.00 Build 0)  -->
<svg version="1.1" id="Layer_1" xmlns="http://www.w3.org/2000/svg" xmlns:xlink="http://www.w3.org/1999/xlink" x="0px" y="0px"
	 viewBox="0 0 600 600" style="enable-background:new 0 0 600 600;" xml:space="preserve">
<style type="text/css">
	.st0{fill:#00B5D3;}
	.st1{fill:#3800D8;}
	.st2{fill:#FFFFFF;}
</style>
<g transform="translate(1200.000000, 1001.000000)">
	<polygon id="Shape_106_" class="st0" points="-1000,-601 -1000,-401 -800,-601 	"/>
	<rect id="Shape_104_" x="-900" y="-501" width="100" height="100"/>
</g>
<g transform="translate(1400.000000, 801.000000)">
	<g>
		<polygon id="Shape_12_" class="st1" points="-1400,-601 -1200,-401 -1400,-401 		"/>
	</g>
</g>
<g>
	<polygon class="st2" points="200,400.6 199.4,400 0,400 0,600 200,600 	"/>
	<polygon id="Shape_98_" class="st1" points="200,400 0,600 200,600 	"/>
	<path id="Shape_96_" d="M99,456h1c24.9,0,45,20.1,45,45c0,24.9-20.1,45-45,45h-1c-24.9,0-45-20.1-45-45C54,476.1,74.1,456,99,456z"
		/>
</g>
</svg>
